<mxfile host="app.diagrams.net" modified="2020-11-01T13:29:05.576Z" agent="5.0 (Windows NT 10.0; Win64; x64) AppleWebKit/537.36 (KHTML, like Gecko) Chrome/86.0.4240.111 Safari/537.36 Edg/86.0.622.58" etag="ci_lMCmffoXCa6BJlgqZ" version="13.8.8" type="github">
  <diagram id="hjR3xPWkxNP2xQoc7Xf6" name="Page-1">
    <mxGraphModel dx="1422" dy="763" grid="1" gridSize="10" guides="1" tooltips="1" connect="1" arrows="1" fold="1" page="1" pageScale="1" pageWidth="827" pageHeight="1169" math="0" shadow="0">
      <root>
        <mxCell id="0" />
        <mxCell id="1" parent="0" />
        <mxCell id="q3cE51Fmd5vanMY_PCXQ-3" value="" style="edgeStyle=orthogonalEdgeStyle;rounded=0;orthogonalLoop=1;jettySize=auto;html=1;" edge="1" parent="1" source="q3cE51Fmd5vanMY_PCXQ-1" target="q3cE51Fmd5vanMY_PCXQ-2">
          <mxGeometry relative="1" as="geometry" />
        </mxCell>
        <mxCell id="q3cE51Fmd5vanMY_PCXQ-1" value="" style="rounded=0;whiteSpace=wrap;html=1;" vertex="1" parent="1">
          <mxGeometry x="200" y="150" width="120" height="60" as="geometry" />
        </mxCell>
        <mxCell id="q3cE51Fmd5vanMY_PCXQ-2" value="" style="rounded=0;whiteSpace=wrap;html=1;" vertex="1" parent="1">
          <mxGeometry x="200" y="290" width="120" height="60" as="geometry" />
        </mxCell>
      </root>
    </mxGraphModel>
  </diagram>
</mxfile>
